<?xml version="1.0" encoding="UTF-8"?>
<svg id="Calque_2" data-name="Calque 2" xmlns="http://www.w3.org/2000/svg" xmlns:xlink="http://www.w3.org/1999/xlink" viewBox="0 0 125.74 30.3">
  <defs>
    <style>
      .cls-1 {
        fill: #5d9ed6;
      }

      .cls-2 {
        fill: url(#Dégradé_sans_nom_2);
      }

      .cls-3 {
        fill: #f9f9fa;
      }

      .cls-4 {
        fill: #5856a5;
      }

      .cls-5 {
        fill: #e6a93f;
      }

      .cls-6 {
        fill: url(#Dégradé_sans_nom_3);
      }

      .cls-7 {
        fill: url(#Dégradé_sans_nom_4);
      }

      .cls-8 {
        fill: #4ab969;
      }

      .cls-9 {
        fill: #a453a0;
      }
    </style>
    <linearGradient id="Dégradé_sans_nom_4" data-name="Dégradé sans nom 4" x1="-6.33" y1="23.13" x2="20.24" y2="23.13" gradientTransform="translate(0 31.3) scale(1 -1)" gradientUnits="userSpaceOnUse">
      <stop offset=".28" stop-color="#a453a0"/>
      <stop offset=".29" stop-color="#9f54a1"/>
      <stop offset=".36" stop-color="#746eb3"/>
      <stop offset=".41" stop-color="#658fca"/>
      <stop offset=".44" stop-color="#5d9ed6"/>
      <stop offset=".62" stop-color="#55bb6d"/>
      <stop offset=".8" stop-color="#e6a93f"/>
    </linearGradient>
    <linearGradient id="Dégradé_sans_nom_2" data-name="Dégradé sans nom 2" x1="17" y1="23.12" x2="29.72" y2="23.12" gradientTransform="translate(0 31.3) scale(1 -1)" gradientUnits="userSpaceOnUse">
      <stop offset="0" stop-color="#e6a93f"/>
      <stop offset="1" stop-color="#5856a5"/>
    </linearGradient>
    <linearGradient id="Dégradé_sans_nom_3" data-name="Dégradé sans nom 3" x1="8.67" y1="23.17" x2="22.29" y2="23.17" gradientTransform="translate(0 31.3) scale(1 -1)" gradientUnits="userSpaceOnUse">
      <stop offset=".34" stop-color="#e6a93f"/>
      <stop offset=".63" stop-color="#a453a0"/>
      <stop offset="1" stop-color="#5856a5"/>
    </linearGradient>
  </defs>
  <g>
    <path class="cls-7" d="m4.28.09c1.22,0,2.45,0,3.67,0,2.1,0,4.2,1.51,4.92,3.49.06.17.04.31-.03.46-.51,1.08-1.03,2.17-1.54,3.25-.05.1-.07.26-.22.26-.14,0-.17-.15-.22-.25-.38-.81-.8-1.6-1.14-2.42-.48-1.14-1.27-1.73-2.53-1.66-.53.03-1.06.01-1.6,0-.32,0-.41.08-.25.39.52,1.05,1.01,2.11,1.52,3.17.77,1.6,1.54,3.19,2.3,4.79.39.81,1.02,1.28,1.91,1.28.91,0,1.57-.48,1.95-1.29,1.37-2.85,2.67-5.72,4.09-8.54.94-1.87,2.53-2.86,4.65-2.94.47-.02.5.05.3.47-1.4,2.93-2.8,5.86-4.2,8.79-.57,1.2-1.16,2.4-1.72,3.6-1.22,2.61-3.91,3.85-6.67,3.06-1.49-.43-2.61-1.34-3.28-2.72C4.34,9.48,2.54,5.64.72,1.82.51,1.37.3.93.07.49,0,.34-.02.24.02.18c.01-.02.05-.07.31-.09.16-.01.29,0,.39,0,1.19,0,2.37,0,3.56,0h0s0,0,0,0Z"/>
    <path class="cls-2" d="m18.41,16.26c-.25.02-.7-.05-1.14-.17-.1-.03-.24-.03-.26-.14-.03-.16.14-.17.24-.22,1.03-.52,1.86-1.26,2.39-2.28.65-1.25,1.23-2.54,1.84-3.82,1.07-2.24,2.08-4.5,3.22-6.7.95-1.83,2.54-2.78,4.62-2.86.47-.02.49.04.28.48-1.89,3.95-3.8,7.9-5.68,11.86-.47,1-.99,1.95-1.87,2.64-1.01.79-2.15,1.19-3.64,1.21h0Z"/>
    <path class="cls-6" d="m10.87,16.25c-.25.02-.86-.09-1.3-.21-.1-.03-1-.32-.88-.31.58.01,1.29-.23,1.66-.39.17-.07.33-.16.47-.26.75-.55.76-.83,1.25-1.58.03-.06.07-.11.1-.17.64-1.23,1.21-2.49,1.81-3.74,1.08-2.24,2.1-4.52,3.25-6.72C18.17,1.04,19.78.08,21.88,0c.47-.02.5.04.29.48-1.91,3.97-3.84,7.93-5.73,11.91-.48,1-1,1.95-1.89,2.65-1.02.8-2.17,1.2-3.68,1.21h0Z"/>
  </g>
  <g>
    <path class="cls-3" d="m31.13,16.49h-3.07l5.6-14.19c.59-1.49,1.68-2.06,3.36-2.06s2.74.57,3.31,2.06l5.39,14.19h-3.1l-4.85-12.84c-.14-.38-.4-.54-.78-.54s-.64.17-.8.54l-5.06,12.84Z"/>
    <path class="cls-3" d="m47.82.53l4.85,12.84c.14.38.4.54.78.54s.61-.17.78-.54L59.32.53h3.1l-5.63,14.19c-.59,1.49-1.68,2.06-3.33,2.06-1.56,0-2.77-.5-3.36-2.06L44.75.53h3.07,0Z"/>
    <path class="cls-3" d="m67.57.53v15.96h-2.79V.53h2.79Z"/>
    <path class="cls-3" d="m74.05.53v10.43c0,1.54.76,2.74,3.26,2.74h6.2v2.79h-6.36c-4.23,0-5.89-2.32-5.89-5.51V.53h2.79Z"/>
    <path class="cls-3" d="m94.45.53c4.63,0,7.21,2.65,7.21,8.02s-2.55,7.94-7.21,7.94h-2.18c-4.66,0-7.21-2.6-7.21-7.94s2.58-8.02,7.21-8.02h2.18Zm-2.18,2.79c-3.07,0-4.42,1.56-4.42,5.23s1.32,5.16,4.42,5.16h2.18c3.07,0,4.4-1.51,4.4-5.18s-1.32-5.2-4.4-5.2h-2.18Z"/>
    <path class="cls-3" d="m107.74.53v15.96h-2.79V.53h2.79Z"/>
    <path class="cls-3" d="m118.55.53c4.66,0,7.19,2.6,7.19,7.99s-2.51,7.97-7.19,7.97h-5.63c-.9,0-1.32-.43-1.32-1.3V1.83c0-.87.43-1.3,1.32-1.3h5.63Zm-4.16,12.89c0,.21.09.28.31.28h3.85c3.1,0,4.4-1.54,4.4-5.2s-1.3-5.18-4.4-5.18h-3.85c-.21,0-.31.07-.31.28v9.81h0Z"/>
  </g>
  <g>
    <path class="cls-3" d="m35.78,22.39v1.53h-4.37c-.73,0-1.03.3-1.03.9,0,.55.24.85,1.12.85h1.86c2.19,0,2.74,1,2.74,2.23,0,1.41-.73,2.4-2.59,2.4h-4.6v-1.54h4.6c.73,0,1.03-.25,1.03-.87s-.33-.88-1.12-.88h-1.87c-2.19,0-2.72-1.09-2.72-2.31,0-1.42.73-2.31,2.57-2.31h4.39Z"/>
    <path class="cls-3" d="m38.25,22.39v-1.87h1.6v1.87h2.19v1.53h-2.19v3.74c0,.88.31,1.18,1.06,1.18h1.09v1.45h-1.42c-1.63,0-2.33-.66-2.33-2.72v-3.65h-1.08v-1.53h1.08Z"/>
    <path class="cls-3" d="m45.13,22.39v4.73c0,.93.69,1.63,1.95,1.63h1.29c1.26,0,1.93-.7,1.93-1.63v-4.73h1.56v4.79c0,1.83-1.17,3.11-3.43,3.11h-1.47c-2.26,0-3.43-1.29-3.43-3.11v-4.79h1.6,0Z"/>
    <path class="cls-3" d="m62.23,18.96v7.95c0,2.27-1.02,3.38-2.9,3.38h-2.19c-2.11,0-3.43-1.29-3.43-3.95s1.32-3.95,3.43-3.95h3.49v-3.43h1.6Zm-1.6,7.87v-2.92h-3.34c-1.36,0-1.98.72-1.98,2.42s.61,2.41,1.98,2.41h1.57c1.27,0,1.77-.57,1.77-1.92h0Z"/>
    <path class="cls-3" d="m66.09,19.41v1.84h-1.6v-1.84h1.6Zm-.02,2.98v7.9h-1.59v-7.9h1.59Z"/>
    <path class="cls-3" d="m73.07,22.39c2.1,0,3.43,1.29,3.43,3.95s-1.33,3.95-3.43,3.95h-1.66c-2.11,0-3.43-1.29-3.43-3.95s1.32-3.95,3.43-3.95h1.66Zm-1.51,1.53c-1.38,0-1.98.72-1.98,2.42s.6,2.41,1.98,2.41h1.36c1.36,0,1.98-.7,1.98-2.41s-.61-2.42-1.98-2.42h-1.36Z"/>
  </g>
  <circle class="cls-4" cx="83.59" cy="26.11" r="2.68"/>
  <circle class="cls-9" cx="93.07" cy="26.11" r="2.68"/>
  <circle class="cls-8" cx="111.28" cy="26.11" r="2.68"/>
  <circle class="cls-5" cx="120.51" cy="26.11" r="2.68"/>
  <circle class="cls-1" cx="102.05" cy="26.11" r="2.68"/>
</svg>