<?xml version="1.0" encoding="UTF-8"?>
<svg id="Calque_2" data-name="Calque 2" xmlns="http://www.w3.org/2000/svg" xmlns:xlink="http://www.w3.org/1999/xlink" viewBox="0 0 1000 1000">
  <defs>
    <style>
      .cls-1 {
        fill: url(#Dégradé_sans_nom_6-2);
      }

      .cls-2 {
        fill: url(#Dégradé_sans_nom_7);
      }

      .cls-3 {
        fill: url(#Dégradé_sans_nom_6);
      }
    </style>
    <linearGradient id="Dégradé_sans_nom_7" data-name="Dégradé sans nom 7" x1="2.64" y1="500.79" x2="626.13" y2="500.79" gradientUnits="userSpaceOnUse">
      <stop offset=".28" stop-color="#d22fea"/>
      <stop offset=".29" stop-color="#cc33ea"/>
      <stop offset=".36" stop-color="#8170f4"/>
      <stop offset=".41" stop-color="#5296fa"/>
      <stop offset=".44" stop-color="#41a5fd"/>
      <stop offset=".62" stop-color="#4dc16c"/>
      <stop offset=".8" stop-color="#e6a93f"/>
    </linearGradient>
    <linearGradient id="Dégradé_sans_nom_6" data-name="Dégradé sans nom 6" x1="550.28" y1="500.93" x2="848.76" y2="500.93" gradientUnits="userSpaceOnUse">
      <stop offset=".34" stop-color="#e6a93f"/>
      <stop offset=".63" stop-color="#d22fea"/>
      <stop offset="1" stop-color="#5a27fe"/>
    </linearGradient>
    <linearGradient id="Dégradé_sans_nom_6-2" data-name="Dégradé sans nom 6" x1="354.66" y1="499.85" x2="674.25" y2="499.85" xlink:href="#Dégradé_sans_nom_6"/>
  </defs>
  <path class="cls-2" d="m251.75,311.37c28.73,0,57.45-.09,86.18.02,49.27.18,98.67,35.41,115.37,81.96,1.41,3.93.87,7.27-.8,10.78-12.09,25.39-24.12,50.82-36.26,76.19-1.16,2.42-1.74,6.02-5.1,6.07-3.37.05-4.06-3.51-5.22-5.92-9.02-18.89-18.66-37.53-26.71-56.84-11.17-26.81-29.8-40.6-59.4-38.89-12.45.72-24.98.27-37.46-.01-7.5-.17-9.58,1.8-5.95,9.2,12.1,24.69,23.69,49.63,35.59,74.43,17.98,37.47,36.17,74.85,54.05,112.37,9.07,19.02,23.88,29.92,44.8,30.04,21.36.12,36.76-11.2,45.87-30.2,32.03-66.78,62.67-134.24,95.92-200.4,22.02-43.81,59.35-67.21,109-69.04,11-.4,11.84,1.23,7.13,11.1-32.86,68.81-65.75,137.59-98.65,206.38-13.48,28.19-27.22,56.27-40.43,84.59-28.6,61.31-91.83,90.4-156.4,71.79-35-10.09-61.18-31.49-76.87-63.93-43.26-89.46-85.5-179.41-128.18-269.15-4.97-10.44-10.02-20.85-15.26-31.16-3.52-6.92-1.78-9.45,6.04-9.39,30.91.22,61.82.09,92.74.09v-.07Z"/>
  <path class="cls-3" d="m583.22,690.73c-5.89.48-16.34-1.2-26.67-3.87-2.37-.61-5.7-.69-6.19-3.39-.67-3.66,3.26-4.09,5.56-5.25,24.11-12.15,43.72-29.52,56.15-53.42,15.28-29.37,28.83-59.64,43.12-89.53,25.07-52.44,48.84-105.56,75.62-157.12,22.28-42.9,59.66-65.23,108.38-67.05,10.95-.41,11.53.99,6.66,11.14-44.46,92.71-89.18,185.3-133.18,278.22-11.1,23.45-23.18,45.66-43.96,62-23.68,18.62-50.53,28.02-85.48,28.27Z"/>
  <path class="cls-1" d="m406.25,690.46c-5.95.48-20.17-2.13-30.6-4.82-2.39-.62-23.5-7.41-20.74-7.36,13.63.28,30.19-5.47,39.02-9.04,3.92-1.58,7.63-3.65,11.03-6.16,17.6-12.99,17.93-19.41,29.24-37.06.82-1.28,1.59-2.61,2.29-3.96,14.96-28.81,28.32-58.45,42.38-87.72,25.31-52.66,49.29-106,76.32-157.77,22.49-43.08,60.21-65.5,109.39-67.33,11.05-.41,11.63,1,6.72,11.19-44.87,93.1-90.01,186.06-134.42,279.38-11.21,23.55-23.4,45.85-44.37,62.25-23.9,18.7-51,28.14-86.27,28.39Z"/>
</svg>